<svg xmlns="http://www.w3.org/2000/svg" width="32" height="30.5"><path d="M28.19 23.833A14.38 14.38 0 0 0 30.5 16 14.5 14.5 0 0 0 16 1.5 14.5 14.5 0 0 0 1.5 16a14.61 14.61 0 0 0 .033.983 14.446 14.446 0 0 0 3.918 8.945L3.44 27.939a1.504 1.504 0 0 0-.183.222 1.493 1.493 0 0 0-.256.838 1.5 1.5 0 0 0 1.5 1.5 1.52 1.52 0 0 0 .106-.003 1.497 1.497 0 0 0 .955-.436l2.163-2.163a14.61 14.61 0 0 0 1.498.916A14.395 14.395 0 0 0 16 30.5a14.621 14.621 0 0 0 .861-.026 14.42 14.42 0 0 0 7.429-2.587l2.178 2.178c.268.27.64.435 1.049.435A1.483 1.483 0 0 0 29 29.017a1.504 1.504 0 0 0-.003-.098 1.48 1.48 0 0 0-.431-.951l-2.029-2.028a14.682 14.682 0 0 0 1.653-2.107ZM16 4.5C9.649 4.5 4.5 9.648 4.5 16A11.5 11.5 0 0 0 16 27.5c6.351 0 11.5-5.149 11.5-11.5C27.5 9.648 22.35 4.5 16 4.5Zm6 13h-6a1.5 1.5 0 0 1-1.5-1.5V8A1.5 1.5 0 0 1 16 6.5 1.5 1.5 0 0 1 17.5 8v6.5H22a1.5 1.5 0 0 1 0 3ZM.013 6.39a5.97 5.97 0 0 0 1.274 3.315 16.056 16.056 0 0 1 8.419-8.418A5.971 5.971 0 0 0 6 0a6 6 0 0 0-6 6 6.043 6.043 0 0 0 .013.39ZM30.74 9.503a15.719 15.719 0 0 0-8.243-8.243A5.847 5.847 0 0 1 25.743.012 5.916 5.916 0 0 1 26.126 0 5.874 5.874 0 0 1 32 5.874a5.828 5.828 0 0 1-.776 2.911 5.95 5.95 0 0 1-.484.718Z" fill="rgba(149, 225, 211, 1)" fill-rule="evenodd" data-name="ALARM"/></svg>