<svg xmlns="http://www.w3.org/2000/svg" width="25.6" height="25.6" viewBox="182 16 25.6 25.6"><path d="M204.4 41.6h-19.2a3.2 3.2 0 0 1-3.2-3.2V19.2a3.2 3.2 0 0 1 3.2-3.2h19.2a3.2 3.2 0 0 1 3.2 3.2v19.2a3.2 3.2 0 0 1-3.2 3.2Zm.32-14.88h-2.36c.182.663.28 1.36.28 2.08a7.84 7.84 0 0 1-7.84 7.84 7.84 7.84 0 0 1-7.84-7.84 7.847 7.847 0 0 1 .28-2.08h-2.36v10.72c0 .707.573 1.28 1.28 1.28h17.28a1.28 1.28 0 0 0 1.28-1.28V26.72Zm-9.92-2.88a4.936 4.936 0 0 0-3.687 1.648 4.986 4.986 0 0 0-.811 1.232h-.005a.377.377 0 0 0-.01.026.423.423 0 0 1-.012.029 4.935 4.935 0 0 0-.128.321 4.111 4.111 0 0 1-.018.048l-.04.108a4.999 4.999 0 0 0-.094.34 3.3 3.3 0 0 1-.016.06c-.01.032-.018.066-.026.1a4.983 4.983 0 0 0-.06.367 1.96 1.96 0 0 1-.01.062 1.422 1.422 0 0 0-.014.088 4.995 4.995 0 0 0-.029.531 4.96 4.96 0 0 0 4.96 4.96 4.96 4.96 0 0 0 4.96-4.96 4.995 4.995 0 0 0-.03-.53 1.422 1.422 0 0 0-.012-.088 1.96 1.96 0 0 1-.01-.063 4.983 4.983 0 0 0-.061-.367 1.933 1.933 0 0 0-.025-.097 3.3 3.3 0 0 1-.017-.064 4.999 4.999 0 0 0-.095-.34c-.012-.036-.025-.071-.039-.107a4.111 4.111 0 0 1-.018-.048 4.935 4.935 0 0 0-.128-.321.423.423 0 0 1-.01-.026.377.377 0 0 0-.012-.03h-.005a4.957 4.957 0 0 0-4.405-2.878 5.044 5.044 0 0 0-.093-.001Zm9.92-3.68a1.28 1.28 0 0 0-1.28-1.28h-2.56a1.28 1.28 0 0 0-1.28 1.28v2.56c0 .707.573 1.28 1.28 1.28h2.56a1.28 1.28 0 0 0 1.28-1.28v-2.56Zm-5.098 7.495v-.004m-.308-.902v-.003m-9.027 0-.001.003" fill="rgba(243, 129, 129, 1)" fill-rule="evenodd" data-name="instagram"/></svg>