<svg xmlns="http://www.w3.org/2000/svg" width="17.6" height="17.6" viewBox="601 0 17.6 17.6"><path d="M618.595 15.823a1.645 1.645 0 0 0-.478-1.04l-4.836-4.836a6.71 6.71 0 0 0 .277-.52A6.537 6.537 0 0 0 614.2 6.6a6.6 6.6 0 0 0-6.6-6.6 6.6 6.6 0 0 0 0 13.2 6.605 6.605 0 0 0 .3-.007 6.56 6.56 0 0 0 3.048-.912l4.835 4.836a1.658 1.658 0 0 0 .253.207 1.642 1.642 0 0 0 .914.276 1.65 1.65 0 0 0 1.65-1.65 1.676 1.676 0 0 0-.005-.127ZM607.6 1.65a4.95 4.95 0 0 0-4.95 4.95 4.95 4.95 0 0 0 4.95 4.95 4.95 4.95 0 0 0 4.95-4.95 4.95 4.95 0 0 0-4.95-4.95Z" fill="rgba(255, 255, 255, 1)" fill-rule="evenodd" data-name="MAGNIFYING GLASS"/></svg>