<svg xmlns="http://www.w3.org/2000/svg" width="32" height="32"><path d="M29.915.118a.168.168 0 0 1-.004.002L16 5.876 2.09.12a.128.128 0 0 1-.005-.002.048.048 0 0 0-.009-.003L2.074.114a1.488 1.488 0 0 0-.042-.017A1.492 1.492 0 0 0 1.5 0 1.5 1.5 0 0 0 0 1.5v23a1.5 1.5 0 0 0 .935 1.39l14.471 5.987a1.51 1.51 0 0 0 .052.021A1.495 1.495 0 0 0 16 32a1.51 1.51 0 0 0 .04 0 1.496 1.496 0 0 0 .554-.123l14.47-5.988A1.5 1.5 0 0 0 32 24.5v-23A1.5 1.5 0 0 0 29.927.115h-.003a.04.04 0 0 0-.004.002ZM14.5 8.503 3 3.743v19.754l11.5 4.759V8.503ZM29 3.743l-11.5 4.76v19.753l11.5-4.76V3.745ZM6.562 19.11A1.49 1.49 0 0 0 6 19a1.5 1.5 0 0 0-1.5 1.5 1.53 1.53 0 0 0 0 .022 1.5 1.5 0 0 0 .88 1.344l5.5 2.5a1.496 1.496 0 0 0 .058.025 1.49 1.49 0 0 0 .562.11A1.5 1.5 0 0 0 13 23a1.53 1.53 0 0 0 0-.022 1.5 1.5 0 0 0-.88-1.344l-5.5-2.5a1.496 1.496 0 0 0-.058-.025Zm13.317-2.975 5.5-2.5a1.498 1.498 0 0 1 .579-.134 1.518 1.518 0 0 1 .042 0 1.5 1.5 0 0 1 1.5 1.5 1.495 1.495 0 0 1-.491 1.11 1.503 1.503 0 0 1-.388.255l-5.5 2.5A1.499 1.499 0 0 1 19 17.5a1.495 1.495 0 0 1 .493-1.112 1.504 1.504 0 0 1 .386-.254Zm0-5.5 5.5-2.5c.19-.086.4-.134.62-.134A1.5 1.5 0 0 1 27.5 9.5a1.496 1.496 0 0 1-.513 1.129 1.501 1.501 0 0 1-.366.236l-5.5 2.5a1.486 1.486 0 0 1-.58.134 1.521 1.521 0 0 1-.041 0 1.5 1.5 0 0 1-.62-2.865ZM6.558 8.107A1.49 1.49 0 0 0 6 8a1.5 1.5 0 0 0-1.5 1.5 1.53 1.53 0 0 0 0 .028 1.5 1.5 0 0 0 .88 1.337l5.5 2.5a1.488 1.488 0 0 0 .058.025 1.488 1.488 0 0 0 .562.11A1.5 1.5 0 0 0 13 12a1.53 1.53 0 0 0 0-.022 1.5 1.5 0 0 0-.88-1.344l-5.5-2.5a1.492 1.492 0 0 0-.062-.027Zm13.321 13.527 5.5-2.5c.19-.086.4-.134.62-.134a1.5 1.5 0 0 1 1.501 1.5 1.5 1.5 0 0 1-.88 1.365l-5.5 2.5c-.189.087-.399.135-.62.135A1.5 1.5 0 0 1 19 23c0-.607.36-1.13.88-1.366ZM6 13.5c.221 0 .431.048.62.134l5.5 2.5a1.5 1.5 0 0 1 .88 1.337 1.532 1.532 0 0 1 0 .029 1.5 1.5 0 0 1-1.5 1.5 1.49 1.49 0 0 1-.562-.11 1.496 1.496 0 0 1-.059-.025l-5.5-2.5a1.5 1.5 0 0 1-.879-1.337 1.533 1.533 0 0 1 0-.029A1.5 1.5 0 0 1 6 13.5ZM29.915.118a.12.12 0 0 1 .005-.002M2.083.117l.002.001" fill="rgba(149, 225, 211, 1)" fill-rule="evenodd" data-name="BOOK 2"/></svg>