<svg xmlns="http://www.w3.org/2000/svg" width="17.6" height="14.025" viewBox="541 1 17.6 14.025"><path d="M558.526 4.088h.001l-2.475 5.5a.824.824 0 0 1-.697.485l-7.128.475.412 1.177h7.761a1.65 1.65 0 1 1-1.65 1.65h-7.7a1.65 1.65 0 0 1-1.65 1.65 1.65 1.65 0 0 1-1.65-1.65 1.65 1.65 0 0 1 1.65-1.65h1.491l-3.176-9.075h-1.89a.825.825 0 0 1 0-1.65h2.475c.36 0 .663.232.776.554.003-.002.483 1.371.483 1.371h12.216a.825.825 0 0 1 .825.825.82.82 0 0 1-.07.328.892.892 0 0 1-.004.01Zm-12.39.487 1.526 4.357 7.089-.473 1.748-3.884h-10.362Z" fill="rgba(255, 255, 255, 1)" fill-rule="evenodd" data-name="SHOPPING CART"/></svg>