<svg xmlns="http://www.w3.org/2000/svg" width="32" height="32"><path d="M30.5 32h-29A1.5 1.5 0 0 1 0 30.5v-29A1.5 1.5 0 0 1 1.5 0h29A1.5 1.5 0 0 1 32 1.5v29a1.5 1.5 0 0 1-1.5 1.5ZM29 3H3v26h26V3ZM5.215 16.239v-.001l4-2.5a1.49 1.49 0 0 1 .711-.22 1.522 1.522 0 0 1 .074 0c.311 0 .6.094.84.257l.006-.01 6.63 4.421 7.639-5.391a1.492 1.492 0 0 1 .793-.287 1.521 1.521 0 0 1 .092-.002 1.5 1.5 0 0 1 1.5 1.5 1.493 1.493 0 0 1-.345.955 1.51 1.51 0 0 1-.277.26l-8.5 6a1.492 1.492 0 0 1-.786.282 1.52 1.52 0 0 1-.092.002 1.49 1.49 0 0 1-.705-.176 1.499 1.499 0 0 1-.156-.096l-6.657-4.438-3.135 1.96a1.492 1.492 0 0 1-.76.26 1.517 1.517 0 0 1-.087.003 1.5 1.5 0 0 1-1.5-1.5 1.495 1.495 0 0 1 .398-1.019 1.508 1.508 0 0 1 .317-.26Z" fill="rgba(149, 225, 211, 1)" fill-rule="evenodd" data-name="LINE GRAPH"/></svg>