<svg xmlns="http://www.w3.org/2000/svg" width="32" height="30.5" viewBox="0 1 32 30.5"><path d="M29 19.5V30a1.5 1.5 0 0 1-1.5 1.5h-3v-12h-6v12h-14A1.5 1.5 0 0 1 3 30V19.5l13-13 13 13Zm3-2.5a1.5 1.5 0 0 1-1.5 1.5 1.49 1.49 0 0 1-1.02-.405l-.003.003L16.038 4.66 16 4.623 2.554 18.069a1.495 1.495 0 0 1-.949.427 1.525 1.525 0 0 1-.105.004A1.5 1.5 0 0 1 0 17a1.491 1.491 0 0 1 .259-.841 1.512 1.512 0 0 1 .202-.24L14.919 1.461a1.496 1.496 0 0 1 .972-.457A1.519 1.519 0 0 1 16 1c.027 0 .053 0 .08.002a.087.087 0 0 1 .006 0 .087.087 0 0 0 .006.001 1.983 1.983 0 0 1 .068.006.016.016 0 0 1 .002 0 .008.008 0 0 1 .002 0 1.497 1.497 0 0 1 .933.468L23 7.38V6a1.5 1.5 0 0 1 1.5-1.5A1.5 1.5 0 0 1 26 6v4.379l5.598 5.598-.004.003a1.493 1.493 0 0 1 .403.924A1.492 1.492 0 0 1 32 17Zm-18.5 2.5h-6v6h6v-6Z" fill="rgba(149, 225, 211, 1)" fill-rule="evenodd" data-name="HOME"/></svg>