<svg xmlns="http://www.w3.org/2000/svg" width="31" height="28"><path d="M29.5 23H20v2.5l2 2v.5H9v-.5l2-2V23H1.5A1.5 1.5 0 0 1 0 21.5v-20A1.5 1.5 0 0 1 1.5 0h28A1.5 1.5 0 0 1 31 1.5v20a1.5 1.5 0 0 1-1.5 1.5ZM29 2H2v17h27V2ZM13.331 9.25A1.493 1.493 0 0 0 12.5 9a1.5 1.5 0 0 0-1.5 1.5 1.518 1.518 0 0 0 .004.106 1.495 1.495 0 0 0 .435.954l2 2a1.51 1.51 0 0 0 .226.186A1.493 1.493 0 0 0 14.5 14a1.52 1.52 0 0 0 .115-.004 1.496 1.496 0 0 0 .946-.435l4-4a1.51 1.51 0 0 0 .188-.23 1.493 1.493 0 0 0 .25-.831A1.5 1.5 0 0 0 18.5 7a1.525 1.525 0 0 0-.105.004 1.493 1.493 0 0 0-.955.435l-2.94 2.94-.938-.94a1.51 1.51 0 0 0-.23-.188Z" fill="rgba(149, 225, 211, 1)" fill-rule="evenodd" data-name="COMPUTER / OK"/></svg>